<svg xmlns="http://www.w3.org/2000/svg" width="760" height="400" viewBox="0 0 760 400">
<rect width="100%" height="100%" fill="white"/>
<line x1="70.00" y1="310.00" x2="690.00" y2="310.00" stroke="#111111" stroke-width="1.2"/>
<line x1="70.00" y1="30.00" x2="70.00" y2="310.00" stroke="#111111" stroke-width="1.2"/>
<line x1="66.00" y1="310.00" x2="690.00" y2="310.00" stroke="#e5e7eb" stroke-width="0.8"/>
<text x="60.0" y="314.0" font-size="11" font-family="Arial, sans-serif" text-anchor="end" font-weight="normal">0</text>
<line x1="66.00" y1="240.00" x2="690.00" y2="240.00" stroke="#e5e7eb" stroke-width="0.8"/>
<text x="60.0" y="244.0" font-size="11" font-family="Arial, sans-serif" text-anchor="end" font-weight="normal">25</text>
<line x1="66.00" y1="170.00" x2="690.00" y2="170.00" stroke="#e5e7eb" stroke-width="0.8"/>
<text x="60.0" y="174.0" font-size="11" font-family="Arial, sans-serif" text-anchor="end" font-weight="normal">50</text>
<line x1="66.00" y1="100.00" x2="690.00" y2="100.00" stroke="#e5e7eb" stroke-width="0.8"/>
<text x="60.0" y="104.0" font-size="11" font-family="Arial, sans-serif" text-anchor="end" font-weight="normal">75</text>
<line x1="66.00" y1="30.00" x2="690.00" y2="30.00" stroke="#e5e7eb" stroke-width="0.8"/>
<text x="60.0" y="34.0" font-size="11" font-family="Arial, sans-serif" text-anchor="end" font-weight="normal">100</text>
<rect x="130.0" y="92.2" width="110" height="217.8" fill="#2563eb"/>
<text x="185.0" y="205.1" font-size="10" font-family="Arial, sans-serif" text-anchor="middle" font-weight="normal">42</text>
<rect x="130.0" y="30.0" width="110" height="62.2" fill="#dc2626"/>
<text x="185.0" y="65.1" font-size="10" font-family="Arial, sans-serif" text-anchor="middle" font-weight="normal">12</text>
<rect x="130.0" y="30.0" width="110" height="0.0" fill="#7c3aed"/>
<text x="185.0" y="330.0" font-size="10" font-family="Arial, sans-serif" text-anchor="middle" font-weight="normal">Base MPC</text>
<rect x="290.0" y="92.2" width="110" height="217.8" fill="#2563eb"/>
<text x="345.0" y="205.1" font-size="10" font-family="Arial, sans-serif" text-anchor="middle" font-weight="normal">42</text>
<rect x="290.0" y="30.0" width="110" height="62.2" fill="#dc2626"/>
<text x="345.0" y="65.1" font-size="10" font-family="Arial, sans-serif" text-anchor="middle" font-weight="normal">12</text>
<rect x="290.0" y="30.0" width="110" height="0.0" fill="#7c3aed"/>
<text x="345.0" y="330.0" font-size="10" font-family="Arial, sans-serif" text-anchor="middle" font-weight="normal">RSS-MPC Fixed</text>
<rect x="450.0" y="30.0" width="110" height="280.0" fill="#2563eb"/>
<text x="505.0" y="174.0" font-size="10" font-family="Arial, sans-serif" text-anchor="middle" font-weight="normal">54</text>
<rect x="450.0" y="30.0" width="110" height="0.0" fill="#dc2626"/>
<rect x="450.0" y="30.0" width="110" height="0.0" fill="#7c3aed"/>
<text x="505.0" y="330.0" font-size="10" font-family="Arial, sans-serif" text-anchor="middle" font-weight="normal">RSS-MPC GT</text>
<rect x="610.0" y="35.2" width="110" height="274.8" fill="#2563eb"/>
<text x="665.0" y="176.6" font-size="10" font-family="Arial, sans-serif" text-anchor="middle" font-weight="normal">53</text>
<rect x="610.0" y="35.2" width="110" height="0.0" fill="#dc2626"/>
<rect x="610.0" y="30.0" width="110" height="5.2" fill="#7c3aed"/>
<text x="665.0" y="330.0" font-size="10" font-family="Arial, sans-serif" text-anchor="middle" font-weight="normal">RSS-MPC Live</text>
<rect x="110.0" y="360.0" width="13" height="13" fill="#2563eb"/>
<text x="128.0" y="370.0" font-size="10" font-family="Arial, sans-serif" text-anchor="start" font-weight="normal">Route complete</text>
<rect x="290.0" y="360.0" width="13" height="13" fill="#dc2626"/>
<text x="308.0" y="370.0" font-size="10" font-family="Arial, sans-serif" text-anchor="start" font-weight="normal">Lane departure</text>
<rect x="470.0" y="360.0" width="13" height="13" fill="#7c3aed"/>
<text x="488.0" y="370.0" font-size="10" font-family="Arial, sans-serif" text-anchor="start" font-weight="normal">Other failure</text>
<text x="22.0" y="170.0" font-size="11" font-family="Arial, sans-serif" text-anchor="middle" transform="rotate(-90,22.0,170.0)">Episodes (%)</text>
</svg>