<svg xmlns="http://www.w3.org/2000/svg" width="980" height="400" viewBox="0 0 980 400">
<rect width="100%" height="100%" fill="white"/>
<line x1="70.00" y1="310.00" x2="910.00" y2="310.00" stroke="#111111" stroke-width="1.2"/>
<line x1="70.00" y1="30.00" x2="70.00" y2="310.00" stroke="#111111" stroke-width="1.2"/>
<line x1="66.00" y1="310.00" x2="910.00" y2="310.00" stroke="#e5e7eb" stroke-width="0.8"/>
<text x="60.0" y="314.0" font-size="11" font-family="Arial, sans-serif" text-anchor="end" font-weight="normal">0</text>
<line x1="66.00" y1="240.00" x2="910.00" y2="240.00" stroke="#e5e7eb" stroke-width="0.8"/>
<text x="60.0" y="244.0" font-size="11" font-family="Arial, sans-serif" text-anchor="end" font-weight="normal">25</text>
<line x1="66.00" y1="170.00" x2="910.00" y2="170.00" stroke="#e5e7eb" stroke-width="0.8"/>
<text x="60.0" y="174.0" font-size="11" font-family="Arial, sans-serif" text-anchor="end" font-weight="normal">50</text>
<line x1="66.00" y1="100.00" x2="910.00" y2="100.00" stroke="#e5e7eb" stroke-width="0.8"/>
<text x="60.0" y="104.0" font-size="11" font-family="Arial, sans-serif" text-anchor="end" font-weight="normal">75</text>
<line x1="66.00" y1="30.00" x2="910.00" y2="30.00" stroke="#e5e7eb" stroke-width="0.8"/>
<text x="60.0" y="34.0" font-size="11" font-family="Arial, sans-serif" text-anchor="end" font-weight="normal">100</text>
<rect x="104.0" y="164.8" width="100" height="145.2" fill="#2563eb"/>
<text x="154.0" y="241.4" font-size="9" font-family="Arial, sans-serif" text-anchor="middle" font-weight="normal">52%</text>
<rect x="104.0" y="76.7" width="100" height="88.1" fill="#d97706"/>
<text x="154.0" y="124.7" font-size="9" font-family="Arial, sans-serif" text-anchor="middle" font-weight="normal">31%</text>
<rect x="104.0" y="30.0" width="100" height="46.7" fill="#dc2626"/>
<text x="154.0" y="57.3" font-size="9" font-family="Arial, sans-serif" text-anchor="middle" font-weight="normal">17%</text>
<rect x="104.0" y="30.0" width="100" height="0.0" fill="#7c3aed"/>
<text x="154.0" y="330.0" font-size="10" font-family="Arial, sans-serif" text-anchor="middle" font-weight="normal">Base MPC</text>
<rect x="272.0" y="97.4" width="100" height="212.6" fill="#2563eb"/>
<text x="322.0" y="207.7" font-size="9" font-family="Arial, sans-serif" text-anchor="middle" font-weight="normal">76%</text>
<rect x="272.0" y="97.4" width="100" height="0.0" fill="#d97706"/>
<rect x="272.0" y="50.7" width="100" height="46.7" fill="#dc2626"/>
<text x="322.0" y="78.1" font-size="9" font-family="Arial, sans-serif" text-anchor="middle" font-weight="normal">17%</text>
<rect x="272.0" y="30.0" width="100" height="20.7" fill="#7c3aed"/>
<text x="322.0" y="44.4" font-size="9" font-family="Arial, sans-serif" text-anchor="middle" font-weight="normal">7%</text>
<text x="322.0" y="330.0" font-size="10" font-family="Arial, sans-serif" text-anchor="middle" font-weight="normal">VLM-MPC-Long</text>
<rect x="440.0" y="81.9" width="100" height="228.1" fill="#2563eb"/>
<text x="490.0" y="199.9" font-size="9" font-family="Arial, sans-serif" text-anchor="middle" font-weight="normal">81%</text>
<rect x="440.0" y="81.9" width="100" height="0.0" fill="#d97706"/>
<rect x="440.0" y="35.2" width="100" height="46.7" fill="#dc2626"/>
<text x="490.0" y="62.5" font-size="9" font-family="Arial, sans-serif" text-anchor="middle" font-weight="normal">17%</text>
<rect x="440.0" y="30.0" width="100" height="5.2" fill="#7c3aed"/>
<text x="490.0" y="330.0" font-size="10" font-family="Arial, sans-serif" text-anchor="middle" font-weight="normal">RSS-MPC Fixed</text>
<rect x="608.0" y="30.0" width="100" height="280.0" fill="#2563eb"/>
<text x="658.0" y="174.0" font-size="9" font-family="Arial, sans-serif" text-anchor="middle" font-weight="normal">100%</text>
<rect x="608.0" y="30.0" width="100" height="0.0" fill="#d97706"/>
<rect x="608.0" y="30.0" width="100" height="0.0" fill="#dc2626"/>
<rect x="608.0" y="30.0" width="100" height="0.0" fill="#7c3aed"/>
<text x="658.0" y="330.0" font-size="10" font-family="Arial, sans-serif" text-anchor="middle" font-weight="normal">RSS-MPC GT</text>
<rect x="776.0" y="30.0" width="100" height="280.0" fill="#2563eb"/>
<text x="826.0" y="174.0" font-size="9" font-family="Arial, sans-serif" text-anchor="middle" font-weight="normal">100%</text>
<rect x="776.0" y="30.0" width="100" height="0.0" fill="#d97706"/>
<rect x="776.0" y="30.0" width="100" height="0.0" fill="#dc2626"/>
<rect x="776.0" y="30.0" width="100" height="0.0" fill="#7c3aed"/>
<text x="826.0" y="330.0" font-size="10" font-family="Arial, sans-serif" text-anchor="middle" font-weight="normal">VLM-RSS-MPC Defense</text>
<text x="22.0" y="170.0" font-size="11" font-family="Arial, sans-serif" text-anchor="middle" transform="rotate(-90,22.0,170.0)">Episodes (%)</text>
<rect x="160.0" y="360.0" width="13" height="13" fill="#2563eb"/>
<text x="178.0" y="370.0" font-size="10" font-family="Arial, sans-serif" text-anchor="start" font-weight="normal">Safe stop</text>
<rect x="325.0" y="360.0" width="13" height="13" fill="#d97706"/>
<text x="343.0" y="370.0" font-size="10" font-family="Arial, sans-serif" text-anchor="start" font-weight="normal">Unsafe stop</text>
<rect x="490.0" y="360.0" width="13" height="13" fill="#dc2626"/>
<text x="508.0" y="370.0" font-size="10" font-family="Arial, sans-serif" text-anchor="start" font-weight="normal">Lane departure</text>
<rect x="655.0" y="360.0" width="13" height="13" fill="#7c3aed"/>
<text x="673.0" y="370.0" font-size="10" font-family="Arial, sans-serif" text-anchor="start" font-weight="normal">Heading error</text>
</svg>